<mxfile host="app.diagrams.net" modified="2023-09-07T19:24:36.294Z" agent="Mozilla/5.0 (Macintosh; Intel Mac OS X 10_15_7) AppleWebKit/537.36 (KHTML, like Gecko) Chrome/114.0.0.0 Safari/537.36" version="21.7.2" etag="WgdUyD7LWf1w85rNUM9-" type="github">
  <diagram name="Page-1" id="L8qYbik3CWtbkWzV185g">
    <mxGraphModel>
      <root>
        <mxCell id="0" />
        <mxCell id="1" parent="0" />
      </root>
    </mxGraphModel>
  </diagram>
</mxfile>
